# xmcd
# 
# Track frame offsets:
#     182
#     10762
#     22515
#     32372
#     43735
#     53335
#     63867
#     78305
#     89792
#     98702
#     110612
#     122590
#     132127
#     141685
# 
# Disc length: 2063
# 
# Revision: 5
# Processed by: cddbd v1.5.2PL0 Copyright (c) Steve Scherf et al.
# Submitted via: fre:ac v1.0.31
# 
DISCID=a9080d0e
DTITLE=The Beatles - Help! (U.K.)
DYEAR=1965
DGENRE=Rock/Pop
TTITLE0=Help U.K.
TTITLE1=The Night Before U.K.
TTITLE2=You've Got To Hide Your Love Away U.K.
TTITLE3=I Need You U.K.
TTITLE4=Another Girl U.K.
TTITLE5=You're Going To Lose That Girl U.K.
TTITLE6=Ticket To Ride U.K.
TTITLE7=Act Naturally U.K.
TTITLE8=It's Only Love U.K.
TTITLE9=You Like Me Too Much U.K.
TTITLE10=Tell Me What You See U.K.
TTITLE11=I've Just Seen A Face U.K.
TTITLE12=Yesterday U.K.
TTITLE13=Dizzy Miss Lizzie U.K.
EXTD=
EXTT0=
EXTT1=
EXTT2=
EXTT3=
EXTT4=
EXTT5=
EXTT6=
EXTT7=
EXTT8=
EXTT9=
EXTT10=
EXTT11=
EXTT12=
EXTT13=
PLAYORDER=
